<?xml version="1.0" encoding="UTF-8"?>
<svg xmlns="http://www.w3.org/2000/svg" height="430px" width="430px" version="1.1" y="0px" x="0px" viewBox="0 0 430 430">
 <path id="Behance" d="m388 119h-107v-27h108v27zm-169 149c-1.638 54.43-36.945 80.726-99 81h-120v-268h129c49.312-0.96282 80.579 26.047 81 70-1.6934 26.311-10.08 44.041-32 54 29.449 12.426 40.78 34.592 41 63zm-157-81h57c27.105-0.83408 38.717-8.8347 39-31-1.3795-27.619-20.385-28.94-46-29h-50zm101 77c-1.7952-27.973-17.664-32.912-44-34h-57v71h57c29.959 0.51331 43.709-15.591 44-37zm267-5h-140c2.7487 30.662 17.125 47.452 48 47 20.03-1.6075 30.585-3.8578 38-22h51c-8.4889 42.368-42.777 61.981-91 63-65.795-0.58988-95.444-49.202-96-100 0.15574-65.322 40.004-101.08 95-103 69.546 1.7005 95.166 49.023 95 115zm-52-33c-3.5709-26.952-18.265-39.76-43-40-26.772 1.4527-40.931 17.816-43 41h86z"/>
</svg>
