<?xml version="1.0" encoding="UTF-8"?>
<svg xmlns="http://www.w3.org/2000/svg" height="312" width="312" version="1.1" viewBox="0 0 312 312">
 <path id="path4192" d="m60 248c1 0 2 0 3-1l59-55-8-6-58 54c-2 2-2 5 0 7 1 1 2 2 4 2z"/>
 <path id="path4194" d="m253 248c1 0 3-1 4-2 2-2 2-5 0-7l-58-54-8 6 59 56c1 1 2 1 3 1z"/>
 <path id="path4196" d="m26 298h261c14 0 25-11 25-25v-171c0-14-11-25-25-25h-261c-14 0-25 11-25 25v171c0 14 11 25 25 25m261-211c8 0 15 7 15 15v171c0 8-7 15-15 15h-261c-8 0-15-7-15-15v-171c0-8 7-15 15-15h261z"/>
 <path id="path4198" d="m157 213c7 0 13-2 18-7l129-112-7-8-128 113c-6 6-17 6-24 0l-129-113-6 8 128 112c5 4 12 7 18 7z"/>
</svg>
