<?xml version="1.0" encoding="UTF-8"?>
<svg
   xmlns="http://www.w3.org/2000/svg"
   version="1.1"
   width="578"
   height="578"
   viewBox="0 0 578 578">
   <path
     d="m 569,479 -81,81 C 471,578 434,577 407,572 339,561 227,492 156,419 127,392 104,364 85,338 44,283 10,206 3,165 c -5,-32 -2,-60 15,-73 l 80,-83 C 108,-2 133,-3 142,16 L 207,140 C 214,151 209,170 200,181 l -30,30 c -1,1 -3,4 -3,9 3,31 56,92 77,114 34,35 86,72 107,76 0,0 11,3 16,-1 l 35,-35 c 10,-10 32,-13 43,-6 l 119,70 c 17,7 17,32 5,42 z" /></svg>